HIERARCHY
ROOT Boy:Hips
{
	OFFSET 0.000000 84.648811 2.550922
	CHANNELS 6 Xposition Yposition Zposition Xrotation Yrotation Zrotation
	JOINT Boy:Spine
	{
		OFFSET 0.000000 7.722015 1.166203
		CHANNELS 3 Xrotation Yrotation Zrotation
		JOINT Boy:Spine1
		{
			OFFSET 0.000000 9.600136 0.248766
			CHANNELS 3 Xrotation Yrotation Zrotation
			JOINT Boy:Spine2
			{
				OFFSET 0.000000 11.037796 -0.491239
				CHANNELS 3 Xrotation Yrotation Zrotation
				JOINT Boy:LeftShoulder
				{
					OFFSET 4.215842 16.554443 -4.064723
					CHANNELS 3 Xrotation Yrotation Zrotation
					JOINT Boy:LeftArm
					{
						OFFSET 5.300655 0.663193 -1.709281
						CHANNELS 3 Xrotation Yrotation Zrotation
						JOINT Boy:LeftForeArm
						{
							OFFSET 21.769281 -0.634003 -2.041093
							CHANNELS 3 Xrotation Yrotation Zrotation
							JOINT Boy:LeftHand
							{
								OFFSET 23.845806 -0.085205 -0.870900
								CHANNELS 3 Xrotation Yrotation Zrotation
								JOINT Boy:LeftHandThumb1
								{
									OFFSET 4.401760 -1.591446 3.365570
									CHANNELS 3 Xrotation Yrotation Zrotation
									JOINT Boy:LeftHandThumb2
									{
										OFFSET 3.016712 -1.561966 2.119022
										CHANNELS 3 Xrotation Yrotation Zrotation
										JOINT Boy:LeftHandThumb3
										{
											OFFSET 3.029564 -2.099792 1.415844
											CHANNELS 3 Xrotation Yrotation Zrotation
											JOINT Boy:LeftHandThumb4
											{
												OFFSET 3.582939 -2.394936 0.943704
												CHANNELS 3 Xrotation Yrotation Zrotation
												JOINT Boy:LeftHandThumb4_end
												{
													OFFSET 0.000000 4.411774 0.000000
													CHANNELS 3 Xrotation Yrotation Zrotation
													End Site
													{
														OFFSET 0.000000 4.411766 0.000000
													}
												}
											}
										}
									}
								}
								JOINT Boy:LeftHandIndex1
								{
									OFFSET 12.180298 -0.132065 3.699154
									CHANNELS 3 Xrotation Yrotation Zrotation
									JOINT Boy:LeftHandIndex2
									{
										OFFSET 3.229187 -0.574905 -0.143498
										CHANNELS 3 Xrotation Yrotation Zrotation
										JOINT Boy:LeftHandIndex3
										{
											OFFSET 3.111160 -1.135643 -0.280794
											CHANNELS 3 Xrotation Yrotation Zrotation
											JOINT Boy:LeftHandIndex4
											{
												OFFSET 3.151428 -1.838524 -0.237864
												CHANNELS 3 Xrotation Yrotation Zrotation
												JOINT Boy:LeftHandIndex4_end
												{
													OFFSET 0.000000 3.656265 0.000000
													CHANNELS 3 Xrotation Yrotation Zrotation
													End Site
													{
														OFFSET 0.000000 3.656265 0.000000
													}
												}
											}
										}
									}
								}
								JOINT Boy:LeftHandMiddle1
								{
									OFFSET 12.135162 -0.030609 -0.098180
									CHANNELS 3 Xrotation Yrotation Zrotation
									JOINT Boy:LeftHandMiddle2
									{
										OFFSET 3.290932 -0.875473 -0.186928
										CHANNELS 3 Xrotation Yrotation Zrotation
										JOINT Boy:LeftHandMiddle3
										{
											OFFSET 3.094551 -1.150215 -0.267588
											CHANNELS 3 Xrotation Yrotation Zrotation
											JOINT Boy:LeftHandMiddle4
											{
												OFFSET 4.410469 -2.017624 -0.248491
												CHANNELS 3 Xrotation Yrotation Zrotation
												JOINT Boy:LeftHandMiddle4_end
												{
													OFFSET 0.000000 4.856407 0.000000
													CHANNELS 3 Xrotation Yrotation Zrotation
													End Site
													{
														OFFSET 0.000000 4.856415 0.000000
													}
												}
											}
										}
									}
								}
								JOINT Boy:LeftHandRing1
								{
									OFFSET 12.304863 -0.401016 -3.070051
									CHANNELS 3 Xrotation Yrotation Zrotation
									JOINT Boy:LeftHandRing2
									{
										OFFSET 2.881340 -0.992859 -0.186927
										CHANNELS 3 Xrotation Yrotation Zrotation
										JOINT Boy:LeftHandRing3
										{
											OFFSET 3.022743 -1.281021 -0.290962
											CHANNELS 3 Xrotation Yrotation Zrotation
											JOINT Boy:LeftHandRing4
											{
												OFFSET 3.700905 -1.727280 -0.322350
												CHANNELS 3 Xrotation Yrotation Zrotation
												JOINT Boy:LeftHandRing4_end
												{
													OFFSET 0.000000 4.096848 0.000000
													CHANNELS 3 Xrotation Yrotation Zrotation
													End Site
													{
														OFFSET 0.000000 4.096848 0.000000
													}
												}
											}
										}
									}
								}
								JOINT Boy:LeftHandPinky1
								{
									OFFSET 11.337273 -1.689568 -5.625613
									CHANNELS 3 Xrotation Yrotation Zrotation
									JOINT Boy:LeftHandPinky2
									{
										OFFSET 2.679024 -0.950066 -0.330555
										CHANNELS 3 Xrotation Yrotation Zrotation
										JOINT Boy:LeftHandPinky3
										{
											OFFSET 2.724571 -0.843628 -0.252684
											CHANNELS 3 Xrotation Yrotation Zrotation
											JOINT Boy:LeftHandPinky4
											{
												OFFSET 2.778999 -0.971451 -0.188803
												CHANNELS 3 Xrotation Yrotation Zrotation
												JOINT Boy:LeftHandPinky4_end
												{
													OFFSET 0.000000 2.949936 0.000000
													CHANNELS 3 Xrotation Yrotation Zrotation
													End Site
													{
														OFFSET 0.000000 2.949951 0.000000
													}
												}
											}
										}
									}
								}
							}
						}
					}
				}
				JOINT Boy:RightShoulder
				{
					OFFSET -4.215842 16.554443 -4.064723
					CHANNELS 3 Xrotation Yrotation Zrotation
					JOINT Boy:RightArm
					{
						OFFSET -5.300655 0.663193 -1.709281
						CHANNELS 3 Xrotation Yrotation Zrotation
						JOINT Boy:RightForeArm
						{
							OFFSET -21.769281 -0.634003 -2.041093
							CHANNELS 3 Xrotation Yrotation Zrotation
							JOINT Boy:RightHand
							{
								OFFSET -23.845806 -0.085205 -0.870900
								CHANNELS 3 Xrotation Yrotation Zrotation
								JOINT Boy:RightHandThumb1
								{
									OFFSET -4.401760 -1.591446 3.365570
									CHANNELS 3 Xrotation Yrotation Zrotation
									JOINT Boy:RightHandThumb2
									{
										OFFSET -3.016712 -1.561966 2.119022
										CHANNELS 3 Xrotation Yrotation Zrotation
										JOINT Boy:RightHandThumb3
										{
											OFFSET -3.029564 -2.099792 1.415844
											CHANNELS 3 Xrotation Yrotation Zrotation
											JOINT Boy:RightHandThumb4
											{
												OFFSET -3.582939 -2.394936 0.943704
												CHANNELS 3 Xrotation Yrotation Zrotation
												JOINT Boy:RightHandThumb4_end
												{
													OFFSET 0.000000 4.411774 0.000000
													CHANNELS 3 Xrotation Yrotation Zrotation
													End Site
													{
														OFFSET 0.000000 4.411766 0.000000
													}
												}
											}
										}
									}
								}
								JOINT Boy:RightHandIndex1
								{
									OFFSET -12.180298 -0.132065 3.699154
									CHANNELS 3 Xrotation Yrotation Zrotation
									JOINT Boy:RightHandIndex2
									{
										OFFSET -3.229187 -0.574905 -0.143498
										CHANNELS 3 Xrotation Yrotation Zrotation
										JOINT Boy:RightHandIndex3
										{
											OFFSET -3.111160 -1.135643 -0.280794
											CHANNELS 3 Xrotation Yrotation Zrotation
											JOINT Boy:RightHandIndex4
											{
												OFFSET -3.151428 -1.838524 -0.237864
												CHANNELS 3 Xrotation Yrotation Zrotation
												JOINT Boy:RightHandIndex4_end
												{
													OFFSET 0.000000 3.656265 0.000000
													CHANNELS 3 Xrotation Yrotation Zrotation
													End Site
													{
														OFFSET 0.000000 3.656265 0.000000
													}
												}
											}
										}
									}
								}
								JOINT Boy:RightHandMiddle1
								{
									OFFSET -12.135162 -0.030609 -0.098180
									CHANNELS 3 Xrotation Yrotation Zrotation
									JOINT Boy:RightHandMiddle2
									{
										OFFSET -3.290932 -0.875473 -0.186928
										CHANNELS 3 Xrotation Yrotation Zrotation
										JOINT Boy:RightHandMiddle3
										{
											OFFSET -3.094551 -1.150215 -0.267588
											CHANNELS 3 Xrotation Yrotation Zrotation
											JOINT Boy:RightHandMiddle4
											{
												OFFSET -4.410469 -2.017624 -0.248491
												CHANNELS 3 Xrotation Yrotation Zrotation
												JOINT Boy:RightHandMiddle4_end
												{
													OFFSET 0.000000 4.856407 0.000000
													CHANNELS 3 Xrotation Yrotation Zrotation
													End Site
													{
														OFFSET 0.000000 4.856415 0.000000
													}
												}
											}
										}
									}
								}
								JOINT Boy:RightHandRing1
								{
									OFFSET -12.304863 -0.401016 -3.070051
									CHANNELS 3 Xrotation Yrotation Zrotation
									JOINT Boy:RightHandRing2
									{
										OFFSET -2.881340 -0.992859 -0.186927
										CHANNELS 3 Xrotation Yrotation Zrotation
										JOINT Boy:RightHandRing3
										{
											OFFSET -3.022743 -1.281021 -0.290962
											CHANNELS 3 Xrotation Yrotation Zrotation
											JOINT Boy:RightHandRing4
											{
												OFFSET -3.700905 -1.727280 -0.322350
												CHANNELS 3 Xrotation Yrotation Zrotation
												JOINT Boy:RightHandRing4_end
												{
													OFFSET 0.000000 4.096848 0.000000
													CHANNELS 3 Xrotation Yrotation Zrotation
													End Site
													{
														OFFSET 0.000000 4.096848 0.000000
													}
												}
											}
										}
									}
								}
								JOINT Boy:RightHandPinky1
								{
									OFFSET -11.337273 -1.689568 -5.625613
									CHANNELS 3 Xrotation Yrotation Zrotation
									JOINT Boy:RightHandPinky2
									{
										OFFSET -2.679024 -0.950066 -0.330555
										CHANNELS 3 Xrotation Yrotation Zrotation
										JOINT Boy:RightHandPinky3
										{
											OFFSET -2.724571 -0.843628 -0.252684
											CHANNELS 3 Xrotation Yrotation Zrotation
											JOINT Boy:RightHandPinky4
											{
												OFFSET -2.778999 -0.971451 -0.188803
												CHANNELS 3 Xrotation Yrotation Zrotation
												JOINT Boy:RightHandPinky4_end
												{
													OFFSET 0.000000 2.949936 0.000000
													CHANNELS 3 Xrotation Yrotation Zrotation
													End Site
													{
														OFFSET 0.000000 2.949951 0.000000
													}
												}
											}
										}
									}
								}
							}
						}
					}
				}
				JOINT Boy:Neck
				{
					OFFSET 0.000000 21.684296 -3.123054
					CHANNELS 3 Xrotation Yrotation Zrotation
					JOINT Boy:Head
					{
						OFFSET 0.000000 8.913803 1.034021
						CHANNELS 3 Xrotation Yrotation Zrotation
						JOINT Boy:HeadTop_End
						{
							OFFSET 0.000000 62.353836 0.000000
							CHANNELS 3 Xrotation Yrotation Zrotation
							JOINT Boy:HeadTop_End_end
							{
								OFFSET 0.000000 62.353821 0.000000
								CHANNELS 3 Xrotation Yrotation Zrotation
								End Site
								{
									OFFSET 0.000000 62.353821 0.000000
								}
							}
						}
					}
				}
			}
		}
	}
	JOINT Boy:LeftUpLeg
	{
		OFFSET 8.266982 -4.795517 -0.379053
		CHANNELS 3 Xrotation Yrotation Zrotation
		JOINT Boy:LeftLeg
		{
			OFFSET 0.409030 -33.779736 0.111501
			CHANNELS 3 Xrotation Yrotation Zrotation
			JOINT Boy:LeftFoot
			{
				OFFSET 0.514059 -33.176792 -2.284590
				CHANNELS 3 Xrotation Yrotation Zrotation
				JOINT Boy:LeftToeBase
				{
					OFFSET 0.970168 -12.896767 14.273057
					CHANNELS 3 Xrotation Yrotation Zrotation
					JOINT Boy:LeftToeBase_end
					{
						OFFSET 0.000000 19.261049 0.000000
						CHANNELS 3 Xrotation Yrotation Zrotation
						End Site
						{
							OFFSET 0.000000 19.261049 0.000000
						}
					}
				}
			}
		}
	}
	JOINT Boy:RightUpLeg
	{
		OFFSET -8.266982 -4.795517 -0.379053
		CHANNELS 3 Xrotation Yrotation Zrotation
		JOINT Boy:RightLeg
		{
			OFFSET -0.409030 -33.779736 0.111501
			CHANNELS 3 Xrotation Yrotation Zrotation
			JOINT Boy:RightFoot
			{
				OFFSET -0.514059 -33.176792 -2.284590
				CHANNELS 3 Xrotation Yrotation Zrotation
				JOINT Boy:RightToeBase
				{
					OFFSET -0.970168 -12.896767 14.273057
					CHANNELS 3 Xrotation Yrotation Zrotation
					JOINT Boy:RightToeBase_end
					{
						OFFSET 0.000000 19.261049 0.000000
						CHANNELS 3 Xrotation Yrotation Zrotation
						End Site
						{
							OFFSET 0.000000 19.261049 0.000000
						}
					}
				}
			}
		}
	}
}
MOTION
Frames: 4
Frame Time: 0.033333
-0.084451 71.902733 0.746230 9.550630 -14.379517 -1.090631 33.062900 8.427449 7.649520 10.734604 0.744711 -4.521342 17.520060 -0.085155 -4.562564 -79.974945 -44.103006 -17.955685 -41.559194 -20.395575 -43.468854 -1.652052 -42.678881 -2.112655 -119.558035 8.637284 11.667531 4.871606 11.698906 2.761609 12.640383 -9.924050 13.551535 -9.889497 -16.439511 0.346445 -0.000002 0.000000 0.000001 -0.000001 0.000000 0.000001 -3.303542 -3.117411 -26.989390 -6.075367 -2.336337 -50.315490 -1.284357 -0.071469 -13.975025 -0.000001 0.000000 0.000000 -0.000003 -0.000000 -0.000000 -5.321514 -3.394326 -37.961157 -6.507294 -0.732891 -59.541798 -0.583160 0.803579 -13.657711 -0.000001 0.000001 0.000001 0.000000 0.000000 -0.000000 -7.468720 -3.881487 -42.444086 -7.543371 0.575650 -67.968947 -2.362885 0.091710 -23.670646 -0.000001 0.000001 0.000002 -0.000001 0.000001 -0.000000 -18.810689 -6.618470 -53.549670 -6.427799 3.050092 -65.926229 -0.682474 0.708853 -11.976314 -0.000000 -0.000002 -0.000003 -0.000003 0.000002 -0.000002 -41.176294 -8.605646 -10.122971 -45.041402 33.965732 83.630489 7.155954 103.532390 -7.587430 -13.791727 -17.335483 -29.783672 8.546360 -4.868699 10.498855 16.428931 -10.188311 -23.253984 11.829474 -41.711207 -23.137361 -0.000003 -0.000003 0.000000 -0.000002 -0.000001 -0.000000 -1.398304 5.618221 2.100179 -3.550947 3.817800 23.030085 -2.216950 0.627520 19.489503 0.000000 -0.000000 -0.000001 0.000000 -0.000000 -0.000001 -2.186604 1.678436 37.285251 -10.536039 -2.720631 104.606348 -0.854466 -0.440614 14.550198 -0.000000 0.000000 0.000003 -0.000000 -0.000000 0.000003 -10.024897 6.878247 38.258738 -10.494936 -2.701639 95.179499 -5.614121 -0.207912 48.070690 0.000001 -0.000000 -0.000001 0.000000 -0.000000 -0.000001 -14.632970 8.200459 45.759781 -9.031521 -3.919206 84.029133 -5.872325 -0.262300 57.414734 0.000002 -0.000000 0.000000 0.000001 0.000000 0.000000 -12.863465 -4.195078 4.022053 -0.418375 -4.669062 -1.470346 -0.000002 0.000000 -0.000002 -0.000001 0.000000 -0.000001 -67.272193 8.251349 7.985672 101.254187 6.199916 -3.449829 2.183417 8.598627 13.579137 -0.000001 0.000000 0.000000 -0.000001 -0.000000 0.000000 -45.988897 1.264476 11.941398 65.573573 -3.253775 -3.794010 -29.163777 -18.248652 -0.526846 -0.000000 0.000000 0.000000 -0.000000 -0.000002 -0.000000 
-0.129762 72.463371 7.986873 9.153091 -15.734850 -0.379574 32.737104 8.165133 7.267191 10.413734 0.976026 -5.273411 17.192139 0.002330 -5.336563 -79.295860 -43.604399 -16.695407 -41.125259 -21.202881 -45.312670 -1.520916 -40.203692 -2.023298 -119.777339 8.926058 9.729178 4.825762 11.560735 2.812835 12.640384 -9.924046 13.551535 -9.889494 -16.439507 0.346443 0.000003 -0.000003 0.000001 0.000001 -0.000003 0.000000 -3.309913 -3.131360 -26.950755 -6.072762 -2.338131 -50.289942 -1.281924 -0.071147 -13.951998 0.000001 0.000000 -0.000000 0.000001 0.000000 -0.000000 -5.334951 -3.408467 -37.929328 -6.504667 -0.735283 -59.512784 -0.580912 0.804263 -13.631412 -0.000001 -0.000000 -0.000001 0.000000 -0.000000 -0.000001 -7.483995 -3.893688 -42.417039 -7.541176 0.572393 -67.940643 -2.360008 0.091427 -23.643868 0.000001 0.000001 0.000004 0.000001 0.000001 0.000004 -18.827679 -6.631672 -53.527055 -6.426099 3.049555 -65.893232 -0.679777 0.709734 -11.947322 0.000002 0.000002 0.000002 -0.000001 0.000001 -0.000001 -41.134999 -8.381258 -9.960630 -43.332875 34.757859 82.874394 7.736315 102.558542 -8.153853 -14.443115 -15.694339 -30.832679 8.546358 -4.868700 10.498856 16.428926 -10.188311 -23.253985 11.829479 -41.711207 -23.137360 -0.000003 -0.000001 0.000000 -0.000002 -0.000000 -0.000000 -1.368287 5.485380 2.096254 -3.528227 3.816178 22.845700 -2.195930 0.624435 19.316538 -0.000000 -0.000000 -0.000002 -0.000000 -0.000000 -0.000002 -2.063626 1.588885 36.984928 -10.526090 -2.678329 104.248194 -0.819902 -0.455019 14.202351 -0.000000 0.000000 0.000003 0.000000 0.000000 0.000001 -9.850666 6.845201 37.871288 -10.481434 -2.660301 94.839738 -5.572062 -0.190375 47.701887 0.000000 0.000000 0.000001 -0.000000 0.000000 0.000000 -14.392462 8.189608 45.372192 -9.005207 -3.881912 83.674653 -5.831525 -0.246919 57.035539 -0.000000 -0.000000 0.000001 -0.000001 -0.000000 0.000000 -12.854653 -4.164077 3.848793 -0.415421 -4.676367 -1.646586 0.000000 -0.000000 -0.000001 0.000002 -0.000000 -0.000000 -70.465976 8.724937 9.837613 96.865190 4.897783 -3.008074 -1.078644 3.152028 10.588012 -0.000002 -0.000000 -0.000000 -0.000000 -0.000000 -0.000000 -38.600216 3.579857 10.641745 65.010854 -7.442868 -3.225269 -34.461627 -15.074432 -0.226798 0.000000 -0.000000 -0.000000 0.000000 -0.000000 -0.000000 
-0.196702 73.370430 15.121578 8.974089 -17.362262 0.663687 32.304227 7.836296 6.389681 10.050165 1.208292 -6.242906 16.826745 0.042995 -6.318637 -78.491120 -42.975977 -15.169574 -40.858192 -22.198578 -47.593817 -1.367191 -37.049798 -1.924031 -119.982532 9.340855 7.437165 4.745989 11.322498 2.896736 12.640383 -9.924045 13.551537 -9.889495 -16.439507 0.346441 0.000001 0.000001 0.000000 0.000001 0.000001 -0.000001 -3.316212 -3.145209 -26.912122 -6.070153 -2.339918 -50.264366 -1.279506 -0.070823 -13.928974 0.000003 -0.000000 -0.000000 0.000004 -0.000000 0.000000 -5.348285 -3.422539 -37.897496 -6.502042 -0.737678 -59.483776 -0.578649 0.804962 -13.605114 -0.000000 0.000000 -0.000002 -0.000000 0.000001 0.000001 -7.499162 -3.905862 -42.389988 -7.538978 0.569137 -67.912352 -2.357125 0.091157 -23.617087 -0.000000 0.000001 -0.000000 -0.000000 0.000001 -0.000000 -18.844661 -6.644872 -53.504437 -6.424403 3.049014 -65.860236 -0.677080 0.710590 -11.918526 -0.000001 -0.000001 -0.000002 -0.000002 0.000002 0.000002 -41.069651 -8.079561 -9.662731 -41.458531 35.654977 81.980541 8.475877 101.503093 -8.878315 -15.214975 -14.147662 -31.884539 8.546360 -4.868699 10.498856 16.428926 -10.188309 -23.253982 11.829474 -41.711207 -23.137360 0.000001 -0.000004 -0.000001 0.000001 -0.000000 0.000001 -1.326227 5.298553 2.090255 -3.505009 3.814510 22.657505 -2.174969 0.621284 19.143997 0.000001 -0.000000 -0.000004 0.000001 -0.000000 -0.000004 -1.941773 1.498302 36.685342 -10.516044 -2.636202 103.890674 -0.785478 -0.469612 13.855102 -0.000000 -0.000000 0.000002 -0.000000 -0.000000 0.000002 -9.677471 6.810193 37.485301 -10.467719 -2.619198 94.501329 -5.530037 -0.173177 47.334338 0.000000 0.000000 0.000000 -0.000000 -0.000000 -0.000000 -14.152452 8.175789 44.985217 -8.978662 -3.844783 83.320282 -5.790801 -0.232094 56.656494 -0.000001 0.000000 0.000002 -0.000001 -0.000000 0.000001 -12.848154 -4.127835 3.639379 -0.406961 -4.685636 -1.858835 -0.000000 -0.000001 -0.000001 0.000002 0.000000 0.000000 -69.024580 9.837259 12.166463 88.206333 2.079149 -2.898905 -6.218762 0.090741 7.070685 -0.000001 0.000000 -0.000000 0.000001 0.000000 -0.000000 -30.273820 6.191973 8.464771 61.379809 -10.492750 -2.741120 -37.340074 -13.309155 0.570063 -0.000000 0.000003 -0.000000 -0.000000 -0.000001 0.000001 
-0.294778 74.446747 22.223173 9.099946 -19.178792 1.901835 31.774163 7.546116 5.308625 9.619370 1.461666 -7.299418 16.393231 0.088495 -7.387269 -77.604862 -42.235872 -13.456465 -40.898319 -23.365864 -50.178039 -1.203072 -33.359487 -1.825541 -120.147699 9.850471 4.851360 4.680774 11.127886 2.961043 12.640384 -9.924046 13.551538 -9.889494 -16.439504 0.346444 0.000002 -0.000001 0.000000 -0.000000 -0.000001 -0.000001 -3.322715 -3.159559 -26.871755 -6.067544 -2.341707 -50.238794 -1.276994 -0.070496 -13.904910 0.000004 0.000000 -0.000000 0.000003 0.000000 0.000000 -5.362083 -3.436950 -37.865718 -6.499412 -0.740070 -59.454768 -0.576324 0.805666 -13.578017 -0.000001 0.000001 -0.000001 0.000001 0.000001 -0.000001 -7.514887 -3.918325 -42.362998 -7.536777 0.565879 -67.884041 -2.354136 0.090813 -23.589096 0.000003 0.000003 -0.000001 0.000003 0.000003 -0.000001 -18.861882 -6.657773 -53.481877 -6.422701 3.048473 -65.827239 -0.674315 0.711485 -11.888778 -0.000001 -0.000001 -0.000000 -0.000002 0.000002 -0.000000 -40.979373 -7.719186 -9.205882 -39.567641 36.600894 81.021657 9.443362 100.363783 -9.829481 -15.931409 -12.623769 -32.783938 8.546360 -4.868699 10.498856 16.428927 -10.188310 -23.253985 11.829474 -41.711204 -23.137360 0.000003 0.000001 0.000000 0.000001 -0.000000 -0.000000 -1.268330 5.038337 2.087146 -3.480999 3.812650 22.462783 -2.153884 0.618078 18.970526 0.000000 -0.000001 0.000001 -0.000001 -0.000001 0.000001 -1.820057 1.405999 36.383854 -10.505397 -2.593810 103.530771 -0.750904 -0.484491 13.505466 -0.000000 -0.000000 0.000003 0.000000 0.000000 0.000001 -9.504293 6.772749 37.099661 -10.453787 -2.578224 94.163262 -5.487947 -0.156258 46.967034 0.000001 -0.000000 0.000000 0.000000 0.000000 0.000000 -13.912144 8.158319 44.600019 -8.951987 -3.807958 82.966786 -5.749921 -0.217305 56.278409 -0.000001 -0.000000 0.000001 -0.000001 0.000000 0.000001 -12.824688 -4.088388 3.411092 -0.386099 -4.696167 -2.090465 -0.000001 0.000000 -0.000002 -0.000001 0.000001 -0.000000 -65.280277 11.719965 14.233752 76.465423 -1.766210 -3.001694 -12.212073 -0.302747 5.667937 -0.000000 -0.000000 -0.000000 -0.000000 0.000000 -0.000000 -21.578871 8.606931 5.292096 55.538720 -11.296487 -2.312152 -37.692034 -13.091495 1.396559 -0.000000 0.000002 0.000000 0.000000 -0.000001 -0.000000 
